<?xml version="1.0" encoding="utf-8"?>
<!-- Generator: Adobe Illustrator 28.0.0, SVG Export Plug-In . SVG Version: 6.00 Build 0)  -->
<svg version="1.1" id="Layer_1" xmlns="http://www.w3.org/2000/svg" xmlns:xlink="http://www.w3.org/1999/xlink" x="0px" y="0px"
	 viewBox="0 0 480 480" style="enable-background:new 0 0 480 480;" xml:space="preserve">
<style type="text/css">
	.st0{fill:none;stroke:#000000;stroke-width:7.1664;stroke-miterlimit:10;}
	.st1{fill:none;stroke:#000000;stroke-width:16.7544;stroke-linecap:round;stroke-linejoin:round;stroke-miterlimit:133.3333;}
</style>
<g>
	<polygon class="st0" points="440,355.3 440,124.7 240,9.4 40,124.7 40,355.3 240,470.6 	"/>
	<g>
		<g>
			<g>
				<g>
					<path d="M216.1,103.7l-63.7,0c-2.6,0-4.8,2.1-4.8,4.8l0,262.2c0,2.6,2.1,4.8,4.8,4.8l63.7,0c1.3,0,2.5-0.5,3.4-1.4
						c0.9-0.9,1.4-2.1,1.4-3.4V108.4c0-1.3-0.5-2.5-1.4-3.4C218.6,104.2,217.4,103.7,216.1,103.7z M211.3,365.9h-54.1V338l10.1,0
						c1.3,0,2.5-0.5,3.4-1.4c0.9-0.9,1.4-2.1,1.4-3.4c0-2.6-2.1-4.8-4.8-4.8l-10.1,0v-27.8h18.9c1.3,0,2.5-0.5,3.4-1.4
						s1.4-2.1,1.4-3.4c0-2.6-2.1-4.8-4.8-4.8h-18.9v-27.8l10.1,0c1.3,0,2.5-0.5,3.4-1.4c0.9-0.9,1.4-2.1,1.4-3.4
						c0-2.6-2.1-4.8-4.8-4.8h-10.1v-27.8l25,0c1.3,0,2.5-0.5,3.4-1.4c0.9-0.9,1.4-2.1,1.4-3.4c0-2.6-2.1-4.8-4.8-4.8h-25v-27.8
						l10.1,0c1.3,0,2.5-0.5,3.4-1.4c0.9-0.9,1.4-2.1,1.4-3.4c0-2.6-2.1-4.8-4.8-4.8h-10.1v-27.8l25,0c1.3,0,2.5-0.5,3.4-1.4
						c0.9-0.9,1.4-2.1,1.4-3.4c0-2.6-2.1-4.8-4.8-4.8h-25l0-28.3l54.1,0L211.3,365.9z"/>
				</g>
			</g>
			<g>
				<g>
					<path d="M193.3,291.1l-2.3,0c-2.6,0-4.8,2.1-4.8,4.8c0,2.6,2.1,4.8,4.8,4.8l2.3,0c1.3,0,2.5-0.5,3.4-1.4
						c0.9-0.9,1.4-2.1,1.4-3.4C198.1,293.2,196,291.1,193.3,291.1z"/>
				</g>
			</g>
		</g>
		<path d="M229.2,236.7l-4.3,4.4c-8.2,8.3-8.1,21.7,0.2,29.9l88.8,87.3l45.8,17.1c5.4,2,8.1-0.8,6-6.1l-17.8-45.5l-88.8-87.3
			C250.7,228.2,237.4,228.3,229.2,236.7 M252.8,291.8l6.1-6.2l61,60l-6.1,6.2L252.8,291.8 M262.1,282.3l9-9.1l61,60l-9,9.1
			L262.1,282.3 M354.8,354l-10.5,10.7l-26.8-10.1l26.9-27.3L354.8,354 M341.3,323.8l-6.1,6.2l-61-60l6.1-6.2L341.3,323.8
			 M276.8,260.3l-27.5,28l-7-6.9l27.5-28L276.8,260.3"/>
		<path class="st1" d="M205,174.6c0,9.3,7.5,16.8,16.8,16.8c9.3,0,16.8-7.5,16.8-16.8s-7.5-16.8-16.8-16.8
			C212.5,157.8,205,165.3,205,174.6z M205,174.6h-16.8 M232.8,187.1l114.6,58.6 M232.8,162l114.6-58.6 M288.9,107.6
			c19.9,13.1,33.4,38.2,33.4,67c0,28.9-13.5,54-33.5,67.1"/>
	</g>
</g>
</svg>
